# Guangyu conceptual mesh; units millimetres; not fabrication CAD
o Floor
v -200.000 -1400.000 -50.000
v 2400.000 -1400.000 -50.000
v -200.000 1400.000 -50.000
v 2400.000 1400.000 -50.000
v -200.000 -1400.000 -10.000
v 2400.000 -1400.000 -10.000
v -200.000 1400.000 -10.000
v 2400.000 1400.000 -10.000
f 1 3 4 2
f 5 6 8 7
f 1 2 6 5
f 3 7 8 4
f 1 5 7 3
f 2 4 8 6
o Frame_side
v -50.000 -922.500 777.500
v 50.000 -922.500 777.500
v -50.000 -877.500 777.500
v 50.000 -877.500 777.500
v -50.000 -922.500 2422.500
v 50.000 -922.500 2422.500
v -50.000 -877.500 2422.500
v 50.000 -877.500 2422.500
f 9 11 12 10
f 13 14 16 15
f 9 10 14 13
f 11 15 16 12
f 9 13 15 11
f 10 12 16 14
o Frame_side
v -50.000 877.500 777.500
v 50.000 877.500 777.500
v -50.000 922.500 777.500
v 50.000 922.500 777.500
v -50.000 877.500 2422.500
v 50.000 877.500 2422.500
v -50.000 922.500 2422.500
v 50.000 922.500 2422.500
f 17 19 20 18
f 21 22 24 23
f 17 18 22 21
f 19 23 24 20
f 17 21 23 19
f 18 20 24 22
o Frame_cross
v -50.000 -900.000 782.500
v 50.000 -900.000 782.500
v -50.000 900.000 782.500
v 50.000 900.000 782.500
v -50.000 -900.000 817.500
v 50.000 -900.000 817.500
v -50.000 900.000 817.500
v 50.000 900.000 817.500
f 25 27 28 26
f 29 30 32 31
f 25 26 30 29
f 27 31 32 28
f 25 29 31 27
f 26 28 32 30
o Frame_cross
v -50.000 -900.000 1082.500
v 50.000 -900.000 1082.500
v -50.000 900.000 1082.500
v 50.000 900.000 1082.500
v -50.000 -900.000 1117.500
v 50.000 -900.000 1117.500
v -50.000 900.000 1117.500
v 50.000 900.000 1117.500
f 33 35 36 34
f 37 38 40 39
f 33 34 38 37
f 35 39 40 36
f 33 37 39 35
f 34 36 40 38
o Frame_cross
v -50.000 -900.000 1532.500
v 50.000 -900.000 1532.500
v -50.000 900.000 1532.500
v 50.000 900.000 1532.500
v -50.000 -900.000 1567.500
v 50.000 -900.000 1567.500
v -50.000 900.000 1567.500
v 50.000 900.000 1567.500
f 41 43 44 42
f 45 46 48 47
f 41 42 46 45
f 43 47 48 44
f 41 45 47 43
f 42 44 48 46
o Frame_cross
v -50.000 -900.000 2382.500
v 50.000 -900.000 2382.500
v -50.000 900.000 2382.500
v 50.000 900.000 2382.500
v -50.000 -900.000 2417.500
v 50.000 -900.000 2417.500
v -50.000 900.000 2417.500
v 50.000 900.000 2417.500
f 49 51 52 50
f 53 54 56 55
f 49 50 54 53
f 51 55 56 52
f 49 53 55 51
f 50 52 56 54
o EC_glass_0
v -31.000 -877.500 817.500
v -19.000 -877.500 817.500
v -31.000 877.500 817.500
v -19.000 877.500 817.500
v -31.000 -877.500 1082.500
v -19.000 -877.500 1082.500
v -31.000 877.500 1082.500
v -19.000 877.500 1082.500
f 57 59 60 58
f 61 62 64 63
f 57 58 62 61
f 59 63 64 60
f 57 61 63 59
f 58 60 64 62
o Blind_cassette_0
v 47.500 -870.000 1047.500
v 142.500 -870.000 1047.500
v 47.500 870.000 1047.500
v 142.500 870.000 1047.500
v 47.500 -870.000 1082.500
v 142.500 -870.000 1082.500
v 47.500 870.000 1082.500
v 142.500 870.000 1082.500
f 65 67 68 66
f 69 70 72 71
f 65 66 70 69
f 67 71 72 68
f 65 69 71 67
f 66 68 72 70
o Slat_0_845
v 73.849 -860.000 831.634
v 117.151 -860.000 856.634
v 73.849 860.000 831.634
v 117.151 860.000 856.634
v 72.849 -860.000 833.366
v 116.151 -860.000 858.366
v 72.849 860.000 833.366
v 116.151 860.000 858.366
f 73 75 76 74
f 77 78 80 79
f 73 74 78 77
f 75 79 80 76
f 73 77 79 75
f 74 76 80 78
o Slat_0_885
v 73.849 -860.000 871.634
v 117.151 -860.000 896.634
v 73.849 860.000 871.634
v 117.151 860.000 896.634
v 72.849 -860.000 873.366
v 116.151 -860.000 898.366
v 72.849 860.000 873.366
v 116.151 860.000 898.366
f 81 83 84 82
f 85 86 88 87
f 81 82 86 85
f 83 87 88 84
f 81 85 87 83
f 82 84 88 86
o Slat_0_925
v 73.849 -860.000 911.634
v 117.151 -860.000 936.634
v 73.849 860.000 911.634
v 117.151 860.000 936.634
v 72.849 -860.000 913.366
v 116.151 -860.000 938.366
v 72.849 860.000 913.366
v 116.151 860.000 938.366
f 89 91 92 90
f 93 94 96 95
f 89 90 94 93
f 91 95 96 92
f 89 93 95 91
f 90 92 96 94
o Slat_0_965
v 73.849 -860.000 951.634
v 117.151 -860.000 976.634
v 73.849 860.000 951.634
v 117.151 860.000 976.634
v 72.849 -860.000 953.366
v 116.151 -860.000 978.366
v 72.849 860.000 953.366
v 116.151 860.000 978.366
f 97 99 100 98
f 101 102 104 103
f 97 98 102 101
f 99 103 104 100
f 97 101 103 99
f 98 100 104 102
o Slat_0_1005
v 73.849 -860.000 991.634
v 117.151 -860.000 1016.634
v 73.849 860.000 991.634
v 117.151 860.000 1016.634
v 72.849 -860.000 993.366
v 116.151 -860.000 1018.366
v 72.849 860.000 993.366
v 116.151 860.000 1018.366
f 105 107 108 106
f 109 110 112 111
f 105 106 110 109
f 107 111 112 108
f 105 109 111 107
f 106 108 112 110
o Slat_0_1045
v 73.849 -860.000 1031.634
v 117.151 -860.000 1056.634
v 73.849 860.000 1031.634
v 117.151 860.000 1056.634
v 72.849 -860.000 1033.366
v 116.151 -860.000 1058.366
v 72.849 860.000 1033.366
v 116.151 860.000 1058.366
f 113 115 116 114
f 117 118 120 119
f 113 114 118 117
f 115 119 120 116
f 113 117 119 115
f 114 116 120 118
o EC_glass_1
v -31.000 -877.500 1117.500
v -19.000 -877.500 1117.500
v -31.000 877.500 1117.500
v -19.000 877.500 1117.500
v -31.000 -877.500 1532.500
v -19.000 -877.500 1532.500
v -31.000 877.500 1532.500
v -19.000 877.500 1532.500
f 121 123 124 122
f 125 126 128 127
f 121 122 126 125
f 123 127 128 124
f 121 125 127 123
f 122 124 128 126
o Blind_cassette_1
v 47.500 -870.000 1497.500
v 142.500 -870.000 1497.500
v 47.500 870.000 1497.500
v 142.500 870.000 1497.500
v 47.500 -870.000 1532.500
v 142.500 -870.000 1532.500
v 47.500 870.000 1532.500
v 142.500 870.000 1532.500
f 129 131 132 130
f 133 134 136 135
f 129 130 134 133
f 131 135 136 132
f 129 133 135 131
f 130 132 136 134
o Slat_1_1145
v 73.849 -860.000 1131.634
v 117.151 -860.000 1156.634
v 73.849 860.000 1131.634
v 117.151 860.000 1156.634
v 72.849 -860.000 1133.366
v 116.151 -860.000 1158.366
v 72.849 860.000 1133.366
v 116.151 860.000 1158.366
f 137 139 140 138
f 141 142 144 143
f 137 138 142 141
f 139 143 144 140
f 137 141 143 139
f 138 140 144 142
o Slat_1_1185
v 73.849 -860.000 1171.634
v 117.151 -860.000 1196.634
v 73.849 860.000 1171.634
v 117.151 860.000 1196.634
v 72.849 -860.000 1173.366
v 116.151 -860.000 1198.366
v 72.849 860.000 1173.366
v 116.151 860.000 1198.366
f 145 147 148 146
f 149 150 152 151
f 145 146 150 149
f 147 151 152 148
f 145 149 151 147
f 146 148 152 150
o Slat_1_1225
v 73.849 -860.000 1211.634
v 117.151 -860.000 1236.634
v 73.849 860.000 1211.634
v 117.151 860.000 1236.634
v 72.849 -860.000 1213.366
v 116.151 -860.000 1238.366
v 72.849 860.000 1213.366
v 116.151 860.000 1238.366
f 153 155 156 154
f 157 158 160 159
f 153 154 158 157
f 155 159 160 156
f 153 157 159 155
f 154 156 160 158
o Slat_1_1265
v 73.849 -860.000 1251.634
v 117.151 -860.000 1276.634
v 73.849 860.000 1251.634
v 117.151 860.000 1276.634
v 72.849 -860.000 1253.366
v 116.151 -860.000 1278.366
v 72.849 860.000 1253.366
v 116.151 860.000 1278.366
f 161 163 164 162
f 165 166 168 167
f 161 162 166 165
f 163 167 168 164
f 161 165 167 163
f 162 164 168 166
o Slat_1_1305
v 73.849 -860.000 1291.634
v 117.151 -860.000 1316.634
v 73.849 860.000 1291.634
v 117.151 860.000 1316.634
v 72.849 -860.000 1293.366
v 116.151 -860.000 1318.366
v 72.849 860.000 1293.366
v 116.151 860.000 1318.366
f 169 171 172 170
f 173 174 176 175
f 169 170 174 173
f 171 175 176 172
f 169 173 175 171
f 170 172 176 174
o Slat_1_1345
v 73.849 -860.000 1331.634
v 117.151 -860.000 1356.634
v 73.849 860.000 1331.634
v 117.151 860.000 1356.634
v 72.849 -860.000 1333.366
v 116.151 -860.000 1358.366
v 72.849 860.000 1333.366
v 116.151 860.000 1358.366
f 177 179 180 178
f 181 182 184 183
f 177 178 182 181
f 179 183 184 180
f 177 181 183 179
f 178 180 184 182
o Slat_1_1385
v 73.849 -860.000 1371.634
v 117.151 -860.000 1396.634
v 73.849 860.000 1371.634
v 117.151 860.000 1396.634
v 72.849 -860.000 1373.366
v 116.151 -860.000 1398.366
v 72.849 860.000 1373.366
v 116.151 860.000 1398.366
f 185 187 188 186
f 189 190 192 191
f 185 186 190 189
f 187 191 192 188
f 185 189 191 187
f 186 188 192 190
o Slat_1_1425
v 73.849 -860.000 1411.634
v 117.151 -860.000 1436.634
v 73.849 860.000 1411.634
v 117.151 860.000 1436.634
v 72.849 -860.000 1413.366
v 116.151 -860.000 1438.366
v 72.849 860.000 1413.366
v 116.151 860.000 1438.366
f 193 195 196 194
f 197 198 200 199
f 193 194 198 197
f 195 199 200 196
f 193 197 199 195
f 194 196 200 198
o Slat_1_1465
v 73.849 -860.000 1451.634
v 117.151 -860.000 1476.634
v 73.849 860.000 1451.634
v 117.151 860.000 1476.634
v 72.849 -860.000 1453.366
v 116.151 -860.000 1478.366
v 72.849 860.000 1453.366
v 116.151 860.000 1478.366
f 201 203 204 202
f 205 206 208 207
f 201 202 206 205
f 203 207 208 204
f 201 205 207 203
f 202 204 208 206
o EC_glass_2
v -31.000 -877.500 1567.500
v -19.000 -877.500 1567.500
v -31.000 877.500 1567.500
v -19.000 877.500 1567.500
v -31.000 -877.500 2382.500
v -19.000 -877.500 2382.500
v -31.000 877.500 2382.500
v -19.000 877.500 2382.500
f 209 211 212 210
f 213 214 216 215
f 209 210 214 213
f 211 215 216 212
f 209 213 215 211
f 210 212 216 214
o Blind_cassette_2
v 47.500 -870.000 2347.500
v 142.500 -870.000 2347.500
v 47.500 870.000 2347.500
v 142.500 870.000 2347.500
v 47.500 -870.000 2382.500
v 142.500 -870.000 2382.500
v 47.500 870.000 2382.500
v 142.500 870.000 2382.500
f 217 219 220 218
f 221 222 224 223
f 217 218 222 221
f 219 223 224 220
f 217 221 223 219
f 218 220 224 222
o Slat_2_1595
v 73.849 -860.000 1581.634
v 117.151 -860.000 1606.634
v 73.849 860.000 1581.634
v 117.151 860.000 1606.634
v 72.849 -860.000 1583.366
v 116.151 -860.000 1608.366
v 72.849 860.000 1583.366
v 116.151 860.000 1608.366
f 225 227 228 226
f 229 230 232 231
f 225 226 230 229
f 227 231 232 228
f 225 229 231 227
f 226 228 232 230
o Slat_2_1635
v 73.849 -860.000 1621.634
v 117.151 -860.000 1646.634
v 73.849 860.000 1621.634
v 117.151 860.000 1646.634
v 72.849 -860.000 1623.366
v 116.151 -860.000 1648.366
v 72.849 860.000 1623.366
v 116.151 860.000 1648.366
f 233 235 236 234
f 237 238 240 239
f 233 234 238 237
f 235 239 240 236
f 233 237 239 235
f 234 236 240 238
o Slat_2_1675
v 73.849 -860.000 1661.634
v 117.151 -860.000 1686.634
v 73.849 860.000 1661.634
v 117.151 860.000 1686.634
v 72.849 -860.000 1663.366
v 116.151 -860.000 1688.366
v 72.849 860.000 1663.366
v 116.151 860.000 1688.366
f 241 243 244 242
f 245 246 248 247
f 241 242 246 245
f 243 247 248 244
f 241 245 247 243
f 242 244 248 246
o Slat_2_1715
v 73.849 -860.000 1701.634
v 117.151 -860.000 1726.634
v 73.849 860.000 1701.634
v 117.151 860.000 1726.634
v 72.849 -860.000 1703.366
v 116.151 -860.000 1728.366
v 72.849 860.000 1703.366
v 116.151 860.000 1728.366
f 249 251 252 250
f 253 254 256 255
f 249 250 254 253
f 251 255 256 252
f 249 253 255 251
f 250 252 256 254
o Slat_2_1755
v 73.849 -860.000 1741.634
v 117.151 -860.000 1766.634
v 73.849 860.000 1741.634
v 117.151 860.000 1766.634
v 72.849 -860.000 1743.366
v 116.151 -860.000 1768.366
v 72.849 860.000 1743.366
v 116.151 860.000 1768.366
f 257 259 260 258
f 261 262 264 263
f 257 258 262 261
f 259 263 264 260
f 257 261 263 259
f 258 260 264 262
o Slat_2_1795
v 73.849 -860.000 1781.634
v 117.151 -860.000 1806.634
v 73.849 860.000 1781.634
v 117.151 860.000 1806.634
v 72.849 -860.000 1783.366
v 116.151 -860.000 1808.366
v 72.849 860.000 1783.366
v 116.151 860.000 1808.366
f 265 267 268 266
f 269 270 272 271
f 265 266 270 269
f 267 271 272 268
f 265 269 271 267
f 266 268 272 270
o Slat_2_1835
v 73.849 -860.000 1821.634
v 117.151 -860.000 1846.634
v 73.849 860.000 1821.634
v 117.151 860.000 1846.634
v 72.849 -860.000 1823.366
v 116.151 -860.000 1848.366
v 72.849 860.000 1823.366
v 116.151 860.000 1848.366
f 273 275 276 274
f 277 278 280 279
f 273 274 278 277
f 275 279 280 276
f 273 277 279 275
f 274 276 280 278
o Slat_2_1875
v 73.849 -860.000 1861.634
v 117.151 -860.000 1886.634
v 73.849 860.000 1861.634
v 117.151 860.000 1886.634
v 72.849 -860.000 1863.366
v 116.151 -860.000 1888.366
v 72.849 860.000 1863.366
v 116.151 860.000 1888.366
f 281 283 284 282
f 285 286 288 287
f 281 282 286 285
f 283 287 288 284
f 281 285 287 283
f 282 284 288 286
o Slat_2_1915
v 73.849 -860.000 1901.634
v 117.151 -860.000 1926.634
v 73.849 860.000 1901.634
v 117.151 860.000 1926.634
v 72.849 -860.000 1903.366
v 116.151 -860.000 1928.366
v 72.849 860.000 1903.366
v 116.151 860.000 1928.366
f 289 291 292 290
f 293 294 296 295
f 289 290 294 293
f 291 295 296 292
f 289 293 295 291
f 290 292 296 294
o Slat_2_1955
v 73.849 -860.000 1941.634
v 117.151 -860.000 1966.634
v 73.849 860.000 1941.634
v 117.151 860.000 1966.634
v 72.849 -860.000 1943.366
v 116.151 -860.000 1968.366
v 72.849 860.000 1943.366
v 116.151 860.000 1968.366
f 297 299 300 298
f 301 302 304 303
f 297 298 302 301
f 299 303 304 300
f 297 301 303 299
f 298 300 304 302
o Slat_2_1995
v 73.849 -860.000 1981.634
v 117.151 -860.000 2006.634
v 73.849 860.000 1981.634
v 117.151 860.000 2006.634
v 72.849 -860.000 1983.366
v 116.151 -860.000 2008.366
v 72.849 860.000 1983.366
v 116.151 860.000 2008.366
f 305 307 308 306
f 309 310 312 311
f 305 306 310 309
f 307 311 312 308
f 305 309 311 307
f 306 308 312 310
o Slat_2_2035
v 73.849 -860.000 2021.634
v 117.151 -860.000 2046.634
v 73.849 860.000 2021.634
v 117.151 860.000 2046.634
v 72.849 -860.000 2023.366
v 116.151 -860.000 2048.366
v 72.849 860.000 2023.366
v 116.151 860.000 2048.366
f 313 315 316 314
f 317 318 320 319
f 313 314 318 317
f 315 319 320 316
f 313 317 319 315
f 314 316 320 318
o Slat_2_2075
v 73.849 -860.000 2061.634
v 117.151 -860.000 2086.634
v 73.849 860.000 2061.634
v 117.151 860.000 2086.634
v 72.849 -860.000 2063.366
v 116.151 -860.000 2088.366
v 72.849 860.000 2063.366
v 116.151 860.000 2088.366
f 321 323 324 322
f 325 326 328 327
f 321 322 326 325
f 323 327 328 324
f 321 325 327 323
f 322 324 328 326
o Slat_2_2115
v 73.849 -860.000 2101.634
v 117.151 -860.000 2126.634
v 73.849 860.000 2101.634
v 117.151 860.000 2126.634
v 72.849 -860.000 2103.366
v 116.151 -860.000 2128.366
v 72.849 860.000 2103.366
v 116.151 860.000 2128.366
f 329 331 332 330
f 333 334 336 335
f 329 330 334 333
f 331 335 336 332
f 329 333 335 331
f 330 332 336 334
o Slat_2_2155
v 73.849 -860.000 2141.634
v 117.151 -860.000 2166.634
v 73.849 860.000 2141.634
v 117.151 860.000 2166.634
v 72.849 -860.000 2143.366
v 116.151 -860.000 2168.366
v 72.849 860.000 2143.366
v 116.151 860.000 2168.366
f 337 339 340 338
f 341 342 344 343
f 337 338 342 341
f 339 343 344 340
f 337 341 343 339
f 338 340 344 342
o Slat_2_2195
v 73.849 -860.000 2181.634
v 117.151 -860.000 2206.634
v 73.849 860.000 2181.634
v 117.151 860.000 2206.634
v 72.849 -860.000 2183.366
v 116.151 -860.000 2208.366
v 72.849 860.000 2183.366
v 116.151 860.000 2208.366
f 345 347 348 346
f 349 350 352 351
f 345 346 350 349
f 347 351 352 348
f 345 349 351 347
f 346 348 352 350
o Slat_2_2235
v 73.849 -860.000 2221.634
v 117.151 -860.000 2246.634
v 73.849 860.000 2221.634
v 117.151 860.000 2246.634
v 72.849 -860.000 2223.366
v 116.151 -860.000 2248.366
v 72.849 860.000 2223.366
v 116.151 860.000 2248.366
f 353 355 356 354
f 357 358 360 359
f 353 354 358 357
f 355 359 360 356
f 353 357 359 355
f 354 356 360 358
o Slat_2_2275
v 73.849 -860.000 2261.634
v 117.151 -860.000 2286.634
v 73.849 860.000 2261.634
v 117.151 860.000 2286.634
v 72.849 -860.000 2263.366
v 116.151 -860.000 2288.366
v 72.849 860.000 2263.366
v 116.151 860.000 2288.366
f 361 363 364 362
f 365 366 368 367
f 361 362 366 365
f 363 367 368 364
f 361 365 367 363
f 362 364 368 366
o Slat_2_2315
v 73.849 -860.000 2301.634
v 117.151 -860.000 2326.634
v 73.849 860.000 2301.634
v 117.151 860.000 2326.634
v 72.849 -860.000 2303.366
v 116.151 -860.000 2328.366
v 72.849 860.000 2303.366
v 116.151 860.000 2328.366
f 369 371 372 370
f 373 374 376 375
f 369 370 374 373
f 371 375 376 372
f 369 373 375 371
f 370 372 376 374
o Desktop
v 450.000 -570.000 710.000
v 1850.000 -570.000 710.000
v 450.000 230.000 710.000
v 1850.000 230.000 710.000
v 450.000 -570.000 740.000
v 1850.000 -570.000 740.000
v 450.000 230.000 740.000
v 1850.000 230.000 740.000
f 377 379 380 378
f 381 382 384 383
f 377 378 382 381
f 379 383 384 380
f 377 381 383 379
f 378 380 384 382
o Desk_leg
v 512.500 -507.500 0.000
v 547.500 -507.500 0.000
v 512.500 -472.500 0.000
v 547.500 -472.500 0.000
v 512.500 -507.500 710.000
v 547.500 -507.500 710.000
v 512.500 -472.500 710.000
v 547.500 -472.500 710.000
f 385 387 388 386
f 389 390 392 391
f 385 386 390 389
f 387 391 392 388
f 385 389 391 387
f 386 388 392 390
o Desk_leg
v 512.500 132.500 0.000
v 547.500 132.500 0.000
v 512.500 167.500 0.000
v 547.500 167.500 0.000
v 512.500 132.500 710.000
v 547.500 132.500 710.000
v 512.500 167.500 710.000
v 547.500 167.500 710.000
f 393 395 396 394
f 397 398 400 399
f 393 394 398 397
f 395 399 400 396
f 393 397 399 395
f 394 396 400 398
o Desk_leg
v 1752.500 -507.500 0.000
v 1787.500 -507.500 0.000
v 1752.500 -472.500 0.000
v 1787.500 -472.500 0.000
v 1752.500 -507.500 710.000
v 1787.500 -507.500 710.000
v 1752.500 -472.500 710.000
v 1787.500 -472.500 710.000
f 401 403 404 402
f 405 406 408 407
f 401 402 406 405
f 403 407 408 404
f 401 405 407 403
f 402 404 408 406
o Desk_leg
v 1752.500 132.500 0.000
v 1787.500 132.500 0.000
v 1752.500 167.500 0.000
v 1787.500 167.500 0.000
v 1752.500 132.500 710.000
v 1787.500 132.500 710.000
v 1752.500 167.500 710.000
v 1787.500 167.500 710.000
f 409 411 412 410
f 413 414 416 415
f 409 410 414 413
f 411 415 416 412
f 409 413 415 411
f 410 412 416 414
o Monitor
v 630.000 -245.000 910.000
v 1170.000 -245.000 910.000
v 630.000 -215.000 910.000
v 1170.000 -215.000 910.000
v 630.000 -245.000 1230.000
v 1170.000 -245.000 1230.000
v 630.000 -215.000 1230.000
v 1170.000 -215.000 1230.000
f 417 419 420 418
f 421 422 424 423
f 417 418 422 421
f 419 423 424 420
f 417 421 423 419
f 418 420 424 422
o Screen
v 645.000 -215.000 925.000
v 1155.000 -215.000 925.000
v 645.000 -207.000 925.000
v 1155.000 -207.000 925.000
v 645.000 -215.000 1215.000
v 1155.000 -215.000 1215.000
v 645.000 -207.000 1215.000
v 1155.000 -207.000 1215.000
f 425 427 428 426
f 429 430 432 431
f 425 426 430 429
f 427 431 432 428
f 425 429 431 427
f 426 428 432 430
o Monitor_stand
v 882.500 -250.000 745.000
v 917.500 -250.000 745.000
v 882.500 -210.000 745.000
v 917.500 -210.000 745.000
v 882.500 -250.000 895.000
v 917.500 -250.000 895.000
v 882.500 -210.000 895.000
v 917.500 -210.000 895.000
f 433 435 436 434
f 437 438 440 439
f 433 434 438 437
f 435 439 440 436
f 433 437 439 435
f 434 436 440 438
o Monitor_base
v 780.000 -315.000 740.000
v 1020.000 -315.000 740.000
v 780.000 -145.000 740.000
v 1020.000 -145.000 740.000
v 780.000 -315.000 756.000
v 1020.000 -315.000 756.000
v 780.000 -145.000 756.000
v 1020.000 -145.000 756.000
f 441 443 444 442
f 445 446 448 447
f 441 442 446 445
f 443 447 448 444
f 441 445 447 443
f 442 444 448 446
o Keyboard
v 685.000 -25.000 742.000
v 1115.000 -25.000 742.000
v 685.000 125.000 742.000
v 1115.000 125.000 742.000
v 685.000 -25.000 762.000
v 1115.000 -25.000 762.000
v 685.000 125.000 762.000
v 1115.000 125.000 762.000
f 449 451 452 450
f 453 454 456 455
f 449 450 454 453
f 451 455 456 452
f 449 453 455 451
f 450 452 456 454
o Controller
v 1080.000 92.500 740.000
v 1180.000 92.500 740.000
v 1080.000 167.500 740.000
v 1180.000 167.500 740.000
v 1080.000 92.500 776.000
v 1180.000 92.500 776.000
v 1080.000 167.500 776.000
v 1180.000 167.500 776.000
f 457 459 460 458
f 461 462 464 463
f 457 458 462 461
f 459 463 464 460
f 457 461 463 459
f 458 460 464 462
o Chair_seat
v 665.000 285.000 415.000
v 1135.000 285.000 415.000
v 665.000 735.000 415.000
v 1135.000 735.000 415.000
v 665.000 285.000 485.000
v 1135.000 285.000 485.000
v 665.000 735.000 485.000
v 1135.000 735.000 485.000
f 465 467 468 466
f 469 470 472 471
f 465 466 470 469
f 467 471 472 468
f 465 469 471 467
f 466 468 472 470
o Chair_back
v 665.000 692.500 480.000
v 1135.000 692.500 480.000
v 665.000 757.500 480.000
v 1135.000 757.500 480.000
v 665.000 692.500 960.000
v 1135.000 692.500 960.000
v 665.000 757.500 960.000
v 1135.000 757.500 960.000
f 473 475 476 474
f 477 478 480 479
f 473 474 478 477
f 475 479 480 476
f 473 477 479 475
f 474 476 480 478
o Chair_stem
v 867.500 477.500 20.000
v 932.500 477.500 20.000
v 867.500 542.500 20.000
v 932.500 542.500 20.000
v 867.500 477.500 420.000
v 932.500 477.500 420.000
v 867.500 542.500 420.000
v 932.500 542.500 420.000
f 481 483 484 482
f 485 486 488 487
f 481 482 486 485
f 483 487 488 484
f 481 485 487 483
f 482 484 488 486
o Chair_foot
v 620.000 260.000 32.500
v 1180.000 260.000 32.500
v 620.000 760.000 32.500
v 1180.000 760.000 32.500
v 620.000 260.000 67.500
v 1180.000 260.000 67.500
v 620.000 760.000 67.500
v 1180.000 760.000 67.500
f 489 491 492 490
f 493 494 496 495
f 489 490 494 493
f 491 495 496 492
f 489 493 495 491
f 490 492 496 494
o Torso
v 730.000 420.000 520.000
v 1070.000 420.000 520.000
v 730.000 620.000 520.000
v 1070.000 620.000 520.000
v 730.000 420.000 1030.000
v 1070.000 420.000 1030.000
v 730.000 620.000 1030.000
v 1070.000 620.000 1030.000
f 497 499 500 498
f 501 502 504 503
f 497 498 502 501
f 499 503 504 500
f 497 501 503 499
f 498 500 504 502
o Head
v 817.500 412.500 1080.000
v 982.500 412.500 1080.000
v 817.500 587.500 1080.000
v 982.500 587.500 1080.000
v 817.500 412.500 1300.000
v 982.500 412.500 1300.000
v 817.500 587.500 1300.000
v 982.500 587.500 1300.000
f 505 507 508 506
f 509 510 512 511
f 505 506 510 509
f 507 511 512 508
f 505 509 511 507
f 506 508 512 510
o Thigh
v 725.000 140.000 465.000
v 845.000 140.000 465.000
v 725.000 520.000 465.000
v 845.000 520.000 465.000
v 725.000 140.000 575.000
v 845.000 140.000 575.000
v 725.000 520.000 575.000
v 845.000 520.000 575.000
f 513 515 516 514
f 517 518 520 519
f 513 514 518 517
f 515 519 520 516
f 513 517 519 515
f 514 516 520 518
o Shin
v 735.000 97.500 50.000
v 835.000 97.500 50.000
v 735.000 202.500 50.000
v 835.000 202.500 50.000
v 735.000 97.500 490.000
v 835.000 97.500 490.000
v 735.000 202.500 490.000
v 835.000 202.500 490.000
f 521 523 524 522
f 525 526 528 527
f 521 522 526 525
f 523 527 528 524
f 521 525 527 523
f 522 524 528 526
o Foot
v 727.500 -35.000 25.000
v 842.500 -35.000 25.000
v 727.500 195.000 25.000
v 842.500 195.000 25.000
v 727.500 -35.000 105.000
v 842.500 -35.000 105.000
v 727.500 195.000 105.000
v 842.500 195.000 105.000
f 529 531 532 530
f 533 534 536 535
f 529 530 534 533
f 531 535 536 532
f 529 533 535 531
f 530 532 536 534
o Upper_arm
v 665.250 450.000 770.000
v 755.250 450.000 770.000
v 665.250 550.000 770.000
v 755.250 550.000 770.000
v 665.250 450.000 1030.000
v 755.250 450.000 1030.000
v 665.250 550.000 1030.000
v 755.250 550.000 1030.000
f 537 539 540 538
f 541 542 544 543
f 537 538 542 541
f 539 543 544 540
f 537 541 543 539
f 538 540 544 542
o Forearm
v 667.750 180.000 742.500
v 752.750 180.000 742.500
v 667.750 490.000 742.500
v 752.750 490.000 742.500
v 667.750 180.000 827.500
v 752.750 180.000 827.500
v 667.750 490.000 827.500
v 752.750 490.000 827.500
f 545 547 548 546
f 549 550 552 551
f 545 546 550 549
f 547 551 552 548
f 545 549 551 547
f 546 548 552 550
o Thigh
v 955.000 140.000 465.000
v 1075.000 140.000 465.000
v 955.000 520.000 465.000
v 1075.000 520.000 465.000
v 955.000 140.000 575.000
v 1075.000 140.000 575.000
v 955.000 520.000 575.000
v 1075.000 520.000 575.000
f 553 555 556 554
f 557 558 560 559
f 553 554 558 557
f 555 559 560 556
f 553 557 559 555
f 554 556 560 558
o Shin
v 965.000 97.500 50.000
v 1065.000 97.500 50.000
v 965.000 202.500 50.000
v 1065.000 202.500 50.000
v 965.000 97.500 490.000
v 1065.000 97.500 490.000
v 965.000 202.500 490.000
v 1065.000 202.500 490.000
f 561 563 564 562
f 565 566 568 567
f 561 562 566 565
f 563 567 568 564
f 561 565 567 563
f 562 564 568 566
o Foot
v 957.500 -35.000 25.000
v 1072.500 -35.000 25.000
v 957.500 195.000 25.000
v 1072.500 195.000 25.000
v 957.500 -35.000 105.000
v 1072.500 -35.000 105.000
v 957.500 195.000 105.000
v 1072.500 195.000 105.000
f 569 571 572 570
f 573 574 576 575
f 569 570 574 573
f 571 575 576 572
f 569 573 575 571
f 570 572 576 574
o Upper_arm
v 1044.750 450.000 770.000
v 1134.750 450.000 770.000
v 1044.750 550.000 770.000
v 1134.750 550.000 770.000
v 1044.750 450.000 1030.000
v 1134.750 450.000 1030.000
v 1044.750 550.000 1030.000
v 1134.750 550.000 1030.000
f 577 579 580 578
f 581 582 584 583
f 577 578 582 581
f 579 583 584 580
f 577 581 583 579
f 578 580 584 582
o Forearm
v 1047.250 180.000 742.500
v 1132.250 180.000 742.500
v 1047.250 490.000 742.500
v 1132.250 490.000 742.500
v 1047.250 180.000 827.500
v 1132.250 180.000 827.500
v 1047.250 490.000 827.500
v 1132.250 490.000 827.500
f 585 587 588 586
f 589 590 592 591
f 585 586 590 589
f 587 591 592 588
f 585 589 591 587
f 586 588 592 590